<svg id="visual" viewBox="0 0 900 600" width="900" height="600" xmlns="http://www.w3.org/2000/svg" xmlns:xlink="http://www.w3.org/1999/xlink" version="1.1"><rect x="0" y="0" width="900" height="600" fill="#f7f7f7"></rect><defs><linearGradient id="grad1_0" x1="33.3%" y1="0%" x2="100%" y2="100%"><stop offset="20%" stop-color="#f7f7f7" stop-opacity="1"></stop><stop offset="80%" stop-color="#f7f7f7" stop-opacity="1"></stop></linearGradient></defs><defs><linearGradient id="grad2_0" x1="0%" y1="0%" x2="66.7%" y2="100%"><stop offset="20%" stop-color="#f7f7f7" stop-opacity="1"></stop><stop offset="80%" stop-color="#f7f7f7" stop-opacity="1"></stop></linearGradient></defs><g transform="translate(900, 0)"><path d="M0 378.6C-26.5 377.6 -52.9 376.6 -70.6 355C-88.3 333.4 -97.3 291.2 -112.9 272.5C-128.4 253.9 -150.5 258.7 -171.7 256.9C-192.8 255.1 -212.9 246.7 -240.4 240.4C-267.9 234.1 -302.7 230 -314.8 210.3C-326.8 190.6 -316 155.3 -309.5 128.2C-303 101.1 -300.7 82.2 -312.9 62.2C-325.1 42.2 -351.8 21.1 -378.6 0L0 0Z" fill="#878af4"></path></g><g transform="translate(0, 600)"><path d="M0 -378.6C14.9 -328.3 29.9 -277.9 55.6 -279.5C81.3 -281.1 117.9 -334.6 142.7 -344.6C167.6 -354.6 180.8 -321 203.3 -304.3C225.9 -287.6 257.9 -287.7 267.7 -267.7C277.5 -247.7 265.2 -207.5 275.2 -183.9C285.2 -160.3 317.6 -153.3 328 -135.9C338.4 -118.4 326.7 -90.3 331.5 -65.9C336.3 -41.5 357.4 -20.8 378.6 0L0 0Z" fill="#878af4"></path></g></svg>