<svg id="visual" viewBox="0 0 900 600" width="900" height="600" xmlns="http://www.w3.org/2000/svg" xmlns:xlink="http://www.w3.org/1999/xlink" version="1.1"><rect x="0" y="0" width="900" height="600" fill="#f7f7f7"></rect><defs><linearGradient id="grad1_0" x1="33.3%" y1="0%" x2="100%" y2="100%"><stop offset="20%" stop-color="#666af6" stop-opacity="1"></stop><stop offset="80%" stop-color="#666af6" stop-opacity="1"></stop></linearGradient></defs><defs><linearGradient id="grad1_1" x1="33.3%" y1="0%" x2="100%" y2="100%"><stop offset="20%" stop-color="#666af6" stop-opacity="1"></stop><stop offset="80%" stop-color="#f7f7f7" stop-opacity="1"></stop></linearGradient></defs><defs><linearGradient id="grad2_0" x1="0%" y1="0%" x2="66.7%" y2="100%"><stop offset="20%" stop-color="#666af6" stop-opacity="1"></stop><stop offset="80%" stop-color="#666af6" stop-opacity="1"></stop></linearGradient></defs><defs><linearGradient id="grad2_1" x1="0%" y1="0%" x2="66.7%" y2="100%"><stop offset="20%" stop-color="#f7f7f7" stop-opacity="1"></stop><stop offset="80%" stop-color="#666af6" stop-opacity="1"></stop></linearGradient></defs><g transform="translate(900, 0)"><path d="M0 216.3C-12.9 200.9 -25.8 185.5 -41.8 183.3C-57.9 181 -77 192 -90.2 187.4C-103.5 182.8 -110.8 162.7 -118.5 148.5C-126.1 134.3 -134 126 -149.3 119.1C-164.7 112.1 -187.6 106.6 -194.9 93.9C-202.2 81.2 -194 61.3 -195 44.5C-196 27.7 -206.1 13.8 -216.3 0L0 0Z" fill="#b8aef8"></path><path d="M0 108.2C-6.5 100.5 -12.9 92.8 -20.9 91.6C-28.9 90.5 -38.5 96 -45.1 93.7C-51.7 91.4 -55.4 81.4 -59.2 74.3C-63 67.2 -67 63 -74.7 59.5C-82.4 56.1 -93.8 53.3 -97.5 46.9C-101.1 40.6 -97 30.7 -97.5 22.3C-98 13.8 -103.1 6.9 -108.2 0L0 0Z" fill="#666af6"></path></g><g transform="translate(0, 600)"><path d="M0 -216.3C14.6 -209.1 29.2 -201.8 45.6 -199.9C62 -197.9 80.1 -201.4 93.9 -194.9C107.6 -188.5 116.9 -172.2 127.2 -159.5C137.4 -146.8 148.6 -137.8 158.7 -126.6C168.8 -115.3 177.9 -101.9 182 -87.6C186.1 -73.3 185.2 -58.1 190.1 -43.4C195 -28.6 205.7 -14.3 216.3 0L0 0Z" fill="#b8aef8"></path><path d="M0 -108.2C7.3 -104.5 14.6 -100.9 22.8 -99.9C31 -99 40.1 -100.7 46.9 -97.5C53.8 -94.2 58.5 -86.1 63.6 -79.7C68.7 -73.4 74.3 -68.9 79.4 -63.3C84.4 -57.7 88.9 -51 91 -43.8C93 -36.7 92.6 -29.1 95.1 -21.7C97.5 -14.3 102.8 -7.2 108.2 0L0 0Z" fill="#666af6"></path></g></svg>